# xmcd
#
# Track frame offsets:
#	150
#	15645
#	32589
#	57104
#	75643
#	101415
#	119062
#	138157
#	154116
#	169720
#	190309
#	207128
#	223497
#	239012
#	253293
#	268931
#	283356
#	301957
#	317081
#	335323
#
# Disc length: 4645 seconds
#
# Revision: 0
# Processed by: cddbd v1.5.2PL0 Copyright (c) Steve Scherf et al.
# Submitted via: audiograbber 1.83.01
#
DISCID=2f122314
DTITLE=Various Artist - Mix
DYEAR=1900
DGENRE=
TTITLE0=Blake Shelton - All About Tonight
TTITLE1=Zac Brown Band - As she's Walking Away (Ft Alan Jackson)
TTITLE2=SoundGarden - Black Rain
TTITLE3=Trey Songz - Bottoms Up (Ft Nicki Minaj)
TTITLE4=Linkin Park - The Catalyst
TTITLE5=Daruis Rucker - Come Back Song
TTITLE6=Shinedown - The Crow and the Butterfly
TTITLE7=Dierks Bentley - Draw me a Map
TTITLE8=Rodney Atkins - Farmer's Daughter
TTITLE9=Keith Urban - I'm in
TTITLE10=The Band Perry - If I Die Young
TTITLE11=Lee Brice - Love Like Crazy
TTITLE12=Kellie Pickler - Makin Me Fall in Love Again
TTITLE13=Miranda Lambert - Only Prettier
TTITLE14=Eason Corbin - Roll With It
TTITLE15=Eric Church - Smoke a Little Smoke
TTITLE16=Sugarland - Stuck Like Glue
TTITLE17=Trace Adkins - This Ain't No Love Song
TTITLE18=Craig Morgan - This Ain't Nothin
TTITLE19=Toby Keith - Trailerhood
EXTD=
EXTT0=
EXTT1=
EXTT2=
EXTT3=
EXTT4=
EXTT5=
EXTT6=
EXTT7=
EXTT8=
EXTT9=
EXTT10=
EXTT11=
EXTT12=
EXTT13=
EXTT14=
EXTT15=
EXTT16=
EXTT17=
EXTT18=
EXTT19=
PLAYORDER=
